<?xml version="1.0" encoding="UTF-8" standalone="no"?>
<svg
   xmlns:osb="http://www.openswatchbook.org/uri/2009/osb"
   xmlns:dc="http://purl.org/dc/elements/1.1/"
   xmlns:cc="http://creativecommons.org/ns#"
   xmlns:rdf="http://www.w3.org/1999/02/22-rdf-syntax-ns#"
   xmlns:svg="http://www.w3.org/2000/svg"
   xmlns="http://www.w3.org/2000/svg"
   xmlns:sodipodi="http://sodipodi.sourceforge.net/DTD/sodipodi-0.dtd"
   xmlns:inkscape="http://www.inkscape.org/namespaces/inkscape"
   width="100"
   height="100"
   viewBox="0 0 26.458333 26.458334"
   version="1.1"
   id="svg8"
   sodipodi:docname="RightBtnSystem.svg"
   inkscape:version="0.92.2 (5c3e80d, 2017-08-06)">
  <sodipodi:namedview
     pagecolor="#ffffff"
     bordercolor="#666666"
     borderopacity="1"
     objecttolerance="10"
     gridtolerance="10"
     guidetolerance="10"
     inkscape:pageopacity="0"
     inkscape:pageshadow="2"
     inkscape:window-width="1920"
     inkscape:window-height="1058"
     id="namedview829"
     showgrid="false"
     inkscape:zoom="4.22"
     inkscape:cx="-12.255336"
     inkscape:cy="15.711162"
     inkscape:window-x="191"
     inkscape:window-y="-8"
     inkscape:window-maximized="1"
     inkscape:current-layer="layer3" />
  <metadata
     id="metadata847">
    <rdf:RDF>
      <cc:Work
         rdf:about="">
        <dc:format>image/svg+xml</dc:format>
        <dc:type
           rdf:resource="http://purl.org/dc/dcmitype/StillImage" />
        <dc:title></dc:title>
      </cc:Work>
    </rdf:RDF>
  </metadata>
  <defs
     id="defs845">
    <linearGradient
       id="linearGradient1482"
       osb:paint="solid">
      <stop
         style="stop-color:#9c0000;stop-opacity:1;"
         offset="0"
         id="stop1480" />
    </linearGradient>
    <linearGradient
       id="linearGradient1476"
       osb:paint="solid">
      <stop
         style="stop-color:#aa0000;stop-opacity:1;"
         offset="0"
         id="stop1474" />
    </linearGradient>
    <linearGradient
       id="linearGradient1470"
       osb:paint="solid">
      <stop
         style="stop-color:#aa0000;stop-opacity:1;"
         offset="0"
         id="stop1468" />
    </linearGradient>
  </defs>
  <g
     inkscape:groupmode="layer"
     id="layer3"
     inkscape:label="Layer 3"
     style="display:inline">
    <g
       id="g906" />
    <text
       xml:space="preserve"
       style="font-style:normal;font-weight:normal;font-size:10.58333302px;line-height:1.25;font-family:sans-serif;letter-spacing:0px;word-spacing:0px;fill:#000000;fill-opacity:1;stroke:none;stroke-width:0.26458332"
       x="-28.018967"
       y="-5.107338"
       id="text853"><tspan
         sodipodi:role="line"
         id="tspan851"
         x="-28.018967"
         y="4.5481577"
         style="stroke-width:0.26458332" /></text>
    <text
       xml:space="preserve"
       style="font-style:normal;font-weight:normal;font-size:10.58333302px;line-height:1.25;font-family:sans-serif;letter-spacing:0px;word-spacing:0px;fill:#000000;fill-opacity:1;stroke:none;stroke-width:0.26458332"
       x="-10.551446"
       y="-9.6293869"
       id="text16391"><tspan
         sodipodi:role="line"
         id="tspan16389"
         x="-10.551446"
         y="-9.6293869"
         style="stroke-width:0.26458332">B-SYS</tspan><tspan
         sodipodi:role="line"
         x="-10.551446"
         y="3.5997798"
         style="stroke-width:0.26458332"
         id="tspan16395" /></text>
    <g
       id="g24408">
      <rect
         y="1.1204956"
         x="1.144317"
         height="24.278959"
         width="24.234709"
         id="rect1466"
         style="opacity:1;fill:none;fill-opacity:1;stroke:#9c0000;stroke-width:2.13820219;stroke-linecap:round;stroke-linejoin:round;stroke-miterlimit:4;stroke-dasharray:none;stroke-opacity:1" />
      <g
         id="g24395">
        <path
           d="m 15.239685,11.363285 q 0,1.285664 -1.085918,1.675822 -0.378644,0.137484 -0.81444,0.137484 -0.914458,0 -1.696749,-0.575947 l 0.54296,-1.062717 q 0.571536,0.535074 1.118068,0.535074 0.246474,0 0.417936,-0.118906 0.200037,-0.133767 0.200037,-0.379011 0,-0.222946 -0.22147,-0.371578 -0.164317,-0.111474 -0.553675,-0.226664 -0.471519,-0.144915 -0.592969,-0.200652 -0.192895,-0.08546 -0.328635,-0.200653 -0.389358,-0.334422 -0.389358,-1.0106959 0,-0.7060006 0.403647,-1.1704747 0.471518,-0.5462215 1.25738,-0.5462215 0.789435,0 1.546721,0.412453 l -0.507239,1.0255587 q -0.414364,-0.3344213 -0.835872,-0.3344213 -0.20361,0 -0.364354,0.107758 -0.182177,0.1226212 -0.182177,0.3269897 0,0.2006529 0.23933,0.3455687 0.107163,0.066884 0.642979,0.2303792 0.671555,0.2043681 0.957323,0.5796641 0.246475,0.319557 0.246475,0.82119 z"
           style="font-style:normal;font-variant:normal;font-weight:bold;font-stretch:normal;font-size:7.47945595px;line-height:1.25;font-family:Aharoni;-inkscape-font-specification:'Aharoni, Bold';font-variant-ligatures:normal;font-variant-caps:normal;font-variant-numeric:normal;font-feature-settings:normal;text-align:start;letter-spacing:0px;word-spacing:0px;writing-mode:lr-tb;text-anchor:start;fill:#a50000;fill-opacity:1;stroke:none;stroke-width:0.17357363"
           id="path24322"
           inkscape:connector-curvature="0" />
        <path
           d="m 20.304927,7.9707661 -1.825344,2.6344969 v 2.43756 h -1.268096 v -2.43756 L 15.446868,7.9707661 h 1.514571 l 0.921602,1.3822748 0.885883,-1.3822748 z"
           style="font-style:normal;font-variant:normal;font-weight:bold;font-stretch:normal;font-size:7.47945595px;line-height:1.25;font-family:Aharoni;-inkscape-font-specification:'Aharoni, Bold';font-variant-ligatures:normal;font-variant-caps:normal;font-variant-numeric:normal;font-feature-settings:normal;text-align:start;letter-spacing:0px;word-spacing:0px;writing-mode:lr-tb;text-anchor:start;fill:#a50000;fill-opacity:1;stroke:none;stroke-width:0.17357363"
           id="path24324"
           inkscape:connector-curvature="0" />
        <path
           d="m 24.112789,11.363285 q 0,1.285664 -1.085919,1.675822 -0.378644,0.137484 -0.81444,0.137484 -0.914458,0 -1.696748,-0.575947 l 0.542959,-1.062717 q 0.571536,0.535074 1.118068,0.535074 0.246475,0 0.417936,-0.118906 0.200038,-0.133767 0.200038,-0.379011 0,-0.222946 -0.22147,-0.371578 -0.164317,-0.111474 -0.553676,-0.226664 -0.471518,-0.144915 -0.592969,-0.200652 -0.192894,-0.08546 -0.328634,-0.200653 -0.389359,-0.334422 -0.389359,-1.0106959 0,-0.7060006 0.403648,-1.1704747 0.471517,-0.5462215 1.257379,-0.5462215 0.789436,0 1.546721,0.412453 l -0.507238,1.0255587 q -0.414364,-0.3344213 -0.835872,-0.3344213 -0.203611,0 -0.364355,0.107758 -0.182177,0.1226212 -0.182177,0.3269897 0,0.2006529 0.239331,0.3455687 0.107163,0.066884 0.642978,0.2303792 0.671556,0.2043681 0.957324,0.5796641 0.246475,0.319557 0.246475,0.82119 z"
           style="font-style:normal;font-variant:normal;font-weight:bold;font-stretch:normal;font-size:7.47945595px;line-height:1.25;font-family:Aharoni;-inkscape-font-specification:'Aharoni, Bold';font-variant-ligatures:normal;font-variant-caps:normal;font-variant-numeric:normal;font-feature-settings:normal;text-align:start;letter-spacing:0px;word-spacing:0px;writing-mode:lr-tb;text-anchor:start;fill:#a50000;fill-opacity:1;stroke:none;stroke-width:0.17357363"
           id="path24326"
           inkscape:connector-curvature="0" />
        <path
           d="m 11.461622,21.189903 q 0,1.154228 -0.740821,1.87845 -1.0729136,1.048612 -3.269831,1.048612 H 2.6058303 V 13.819439 h 4.4960171 q 3.2698306,0 3.2698306,2.685655 0,0.807206 -0.357638,1.350372 -0.2980311,0.460183 -0.9196396,0.784574 1.3964896,0.256495 1.9074016,0.988261 0.45982,0.671413 0.45982,1.561602 z M 7.5786977,16.859662 q 0,-0.701591 -0.7152754,-0.92791 -0.2554556,-0.07544 -0.6812147,-0.07544 h -0.553487 v 2.014241 h 0.553487 q 0.7833969,0 1.1240043,-0.339478 0.2724858,-0.271583 0.2724858,-0.671413 z m 0.8600337,4.149186 q 0,-0.897733 -1.0473677,-1.056156 -0.3320922,-0.04527 -1.1410347,-0.04527 H 5.6287206 v 2.172665 h 0.6726996 q 1.1580649,0 1.6178849,-0.241407 0.5194263,-0.271583 0.5194263,-0.829837 z"
           style="font-style:normal;font-variant:normal;font-weight:bold;font-stretch:normal;font-size:16.45430183px;line-height:1.25;font-family:Aharoni;-inkscape-font-specification:'Aharoni, Bold';font-variant-ligatures:normal;font-variant-caps:normal;font-variant-numeric:normal;font-feature-settings:normal;text-align:start;letter-spacing:0px;word-spacing:0px;writing-mode:lr-tb;text-anchor:start;fill:#a50000;fill-opacity:1;stroke:none;stroke-width:0.39078897"
           id="path24329"
           inkscape:connector-curvature="0" />
        <path
           d="m 11.568387,12.829353 q -1.493937,0.516251 -2.7646424,0.516251 -2.215148,0 -3.9666604,-1.234512 -2.2323198,-1.578678 -2.2323198,-4.1150388 0,-2.5438423 2.2323198,-4.1225209 1.7515124,-1.2345116 3.992418,-1.2345116 1.2191898,0 2.7388848,0.5162503 V 6.3350738 Q 11.139094,5.8786786 10.69263,5.64674 9.8769753,5.2202724 8.9411181,5.2202724 q -1.1848466,0 -2.0606028,0.6209967 -1.107574,0.7855984 -1.107574,2.1547841 0,1.3617038 1.107574,2.1473018 0.8757562,0.620997 2.0606028,0.620997 0.9358572,0 1.7515119,-0.426468 0.437879,-0.224456 0.875757,-0.6883333 z"
           style="font-style:normal;font-variant:normal;font-weight:bold;font-stretch:normal;font-size:16.45430183px;line-height:1.25;font-family:Aharoni;-inkscape-font-specification:'Aharoni, Bold';font-variant-ligatures:normal;font-variant-caps:normal;font-variant-numeric:normal;font-feature-settings:normal;text-align:start;letter-spacing:0px;word-spacing:0px;writing-mode:lr-tb;text-anchor:start;fill:#a50000;fill-opacity:1;stroke:none;stroke-width:0.34119651"
           id="path24332"
           inkscape:connector-curvature="0" />
        <path
           d="m 15.239351,22.236554 q 0,1.285664 -1.085919,1.675822 -0.378643,0.137485 -0.81444,0.137485 -0.914458,0 -1.696748,-0.575948 l 0.542959,-1.062717 q 0.571537,0.535075 1.118069,0.535075 0.246475,0 0.417936,-0.118906 0.200037,-0.133769 0.200037,-0.379011 0,-0.222947 -0.22147,-0.37158 -0.164316,-0.111473 -0.553676,-0.226662 -0.471517,-0.144916 -0.592969,-0.200654 -0.192893,-0.08546 -0.328633,-0.200652 -0.38936,-0.334422 -0.38936,-1.010696 0,-0.706 0.403648,-1.170475 0.471518,-0.546221 1.25738,-0.546221 0.789435,0 1.546721,0.412454 l -0.507239,1.025558 q -0.414364,-0.334422 -0.835872,-0.334422 -0.20361,0 -0.364355,0.107758 -0.182177,0.122622 -0.182177,0.32699 0,0.200653 0.239331,0.345568 0.107163,0.06689 0.642979,0.23038 0.671555,0.204369 0.957323,0.579663 0.246475,0.319559 0.246475,0.821191 z"
           style="font-style:normal;font-variant:normal;font-weight:bold;font-stretch:normal;font-size:7.47945595px;line-height:1.25;font-family:Aharoni;-inkscape-font-specification:'Aharoni, Bold';font-variant-ligatures:normal;font-variant-caps:normal;font-variant-numeric:normal;font-feature-settings:normal;text-align:start;letter-spacing:0px;word-spacing:0px;writing-mode:lr-tb;text-anchor:start;fill:#a50000;fill-opacity:1;stroke:none;stroke-width:0.17357364"
           id="path24335"
           inkscape:connector-curvature="0" />
        <path
           d="m 20.304593,18.844035 -1.825344,2.634497 v 2.43756 h -1.268097 v -2.43756 l -1.764618,-2.634497 h 1.514571 l 0.921603,1.382275 0.885881,-1.382275 z"
           style="font-style:normal;font-variant:normal;font-weight:bold;font-stretch:normal;font-size:7.47945595px;line-height:1.25;font-family:Aharoni;-inkscape-font-specification:'Aharoni, Bold';font-variant-ligatures:normal;font-variant-caps:normal;font-variant-numeric:normal;font-feature-settings:normal;text-align:start;letter-spacing:0px;word-spacing:0px;writing-mode:lr-tb;text-anchor:start;fill:#a50000;fill-opacity:1;stroke:none;stroke-width:0.17357364"
           id="path24337"
           inkscape:connector-curvature="0" />
        <path
           d="m 24.112455,22.236554 q 0,1.285664 -1.08592,1.675822 -0.378642,0.137485 -0.814439,0.137485 -0.914459,0 -1.696749,-0.575948 l 0.54296,-1.062717 q 0.571537,0.535075 1.118068,0.535075 0.246475,0 0.417936,-0.118906 0.200038,-0.133769 0.200038,-0.379011 0,-0.222947 -0.221471,-0.37158 -0.164316,-0.111473 -0.553676,-0.226662 -0.471517,-0.144916 -0.592969,-0.200654 -0.192893,-0.08546 -0.328633,-0.200652 -0.389359,-0.334422 -0.389359,-1.010696 0,-0.706 0.403647,-1.170475 0.471518,-0.546221 1.257381,-0.546221 0.789434,0 1.54672,0.412454 l -0.507238,1.025558 q -0.414364,-0.334422 -0.835873,-0.334422 -0.203609,0 -0.364354,0.107758 -0.182178,0.122622 -0.182178,0.32699 0,0.200653 0.239332,0.345568 0.107163,0.06689 0.642978,0.23038 0.671555,0.204369 0.957324,0.579663 0.246475,0.319559 0.246475,0.821191 z"
           style="font-style:normal;font-variant:normal;font-weight:bold;font-stretch:normal;font-size:7.47945595px;line-height:1.25;font-family:Aharoni;-inkscape-font-specification:'Aharoni, Bold';font-variant-ligatures:normal;font-variant-caps:normal;font-variant-numeric:normal;font-feature-settings:normal;text-align:start;letter-spacing:0px;word-spacing:0px;writing-mode:lr-tb;text-anchor:start;fill:#a50000;fill-opacity:1;stroke:none;stroke-width:0.17357364"
           id="path24339"
           inkscape:connector-curvature="0" />
      </g>
    </g>
  </g>
</svg>
